<?xml version="1.0" encoding="UTF-8"?>
<svg xmlns="http://www.w3.org/2000/svg" xmlns:xlink="http://www.w3.org/1999/xlink" width="50pt" height="50pt" viewBox="0 0 50 50" version="1.1">
<g id="surface1">
<path style=" stroke:none;fill-rule:nonzero;fill:rgb(0%,42.745098%,94.117647%);fill-opacity:1;" d="M 43.949219 31.195312 L 49.859375 13.503906 C 50.15625 12.65625 49.929688 12.144531 49.691406 11.804688 C 49.078125 10.941406 47.820312 10.933594 47.574219 10.933594 L 14.167969 10.925781 L 13.277344 6.699219 C 13.035156 5.699219 12.324219 4.746094 10.890625 4.746094 L 1.503906 4.746094 C 0.53125 4.746094 0 5.203125 0 6.113281 L 0 8.554688 C 0 9.433594 0.527344 9.664062 1.539062 9.664062 L 9.464844 9.664062 L 15.53125 35.421875 C 14.566406 36.441406 14.042969 37.929688 14.042969 39.316406 C 14.042969 42.371094 16.472656 45.1875 19.582031 45.1875 C 22.515625 45.1875 24.714844 42.4375 25.070312 40.800781 L 36.886719 40.800781 C 37.242188 42.4375 39.023438 45.253906 42.375 45.253906 C 45.429688 45.253906 47.910156 42.609375 47.910156 39.558594 C 47.910156 36.523438 46.066406 33.835938 42.40625 33.835938 C 40.882812 33.835938 39.078125 34.65625 38.238281 35.882812 L 23.722656 35.882812 C 22.667969 34.246094 21.226562 33.738281 19.773438 33.679688 L 19.570312 32.605469 L 41.660156 32.605469 C 43.324219 32.605469 43.652344 32 43.949219 31.195312 Z M 42.414062 37.410156 C 43.566406 37.410156 44.496094 38.34375 44.496094 39.492188 C 44.496094 40.640625 43.566406 41.570312 42.414062 41.570312 C 41.265625 41.570312 40.332031 40.640625 40.332031 39.492188 C 40.335938 38.34375 41.265625 37.410156 42.414062 37.410156 Z M 21.640625 39.492188 C 21.640625 40.652344 20.695312 41.597656 19.539062 41.597656 C 18.375 41.59375 17.429688 40.652344 17.429688 39.492188 C 17.429688 38.328125 18.375 37.382812 19.539062 37.382812 C 20.695312 37.382812 21.640625 38.328125 21.640625 39.492188 Z M 21.640625 39.492188 "/>
</g>
</svg>
